<svg xmlns="http://www.w3.org/2000/svg" width="601" height="559" viewBox="0 0 601 559"><defs><style>.a{fill:#fff;}.a,.c{stroke:#707070;}.b,.d,.f{fill:#707070;}.b{font-size:40px;}.b,.d,.e{font-family:HelveticaNeue, Helvetica Neue;}.c,.j{fill:none;}.d{font-size:30px;}.e{fill:#d55757;font-size:50px;}.g{fill:#52ba6a;}.h{fill:#5782e5;}.i{stroke:none;}</style></defs><g class="a"><rect class="i" width="165" height="132" rx="50"/><rect class="j" x="0.5" y="0.5" width="164" height="131" rx="49.5"/></g><g class="a" transform="translate(187)"><rect class="i" width="165" height="132" rx="50"/><rect class="j" x="0.5" y="0.5" width="164" height="131" rx="49.5"/></g><text class="b" transform="translate(374 123)"><tspan x="0" y="0">…</tspan></text><g class="a" transform="translate(436)"><rect class="i" width="165" height="132" rx="50"/><rect class="j" x="0.5" y="0.5" width="164" height="131" rx="49.5"/></g><line class="c" y2="83" transform="translate(82.5 132.5)"/><line class="c" x1="187" transform="translate(82.5 215.5)"/><line class="c" transform="translate(269.5 132.5)"/><line class="c" y1="83" transform="translate(518.5 132.5)"/><line class="c" x2="249" transform="translate(269.5 215.5)"/><line class="c" y2="83" transform="translate(269.5 132.5)"/><text class="d" transform="translate(46 78)"><tspan x="0" y="0">Top 5</tspan></text><text class="d" transform="translate(224 78)"><tspan x="0" y="0">Top 10</tspan></text><text class="d" transform="translate(482 78)"><tspan x="0" y="0">Top 7</tspan></text><g class="a" transform="translate(185 266)"><rect class="i" width="260" height="122" rx="50"/><rect class="j" x="0.5" y="0.5" width="259" height="121" rx="49.5"/></g><text class="d" transform="translate(241 339)"><tspan x="0" y="0">NLP Magic</tspan></text><line class="c" y2="51" transform="translate(315.5 215.5)"/><line class="c" y2="62" transform="translate(315.5 388.5)"/><g class="a" transform="translate(65 451)"><rect class="i" width="500" height="108"/><rect class="j" x="0.5" y="0.5" width="499" height="107"/></g><text class="e" transform="translate(157 524)"><tspan x="0" y="0">Simply</tspan><tspan class="f" y="0"> </tspan><tspan class="g" y="0">a</tspan><tspan class="f" y="0"> </tspan><tspan class="h" y="0">List</tspan></text></svg>